# xmcd CD database file
#
# Track frame offsets:
#	187
#	15740
#	29487
#	44277
#	61595
#	79182
#	94192
#	110592
#	125142
#	151635
#	166485
#	181155
#	194802
#	208085
#	219495
#	234305
#
# Disc length: 3293 seconds
#
# Revision: 0
# Processed by: cddbd v1.5.2PL0 Copyright (c) Steve Scherf et al.
# Submitted via: CDex 1.70beta2
#
DISCID=d90cdb10
DTITLE=THE GLENN MILLER ORCHESTRA - THE GLENN MILLER ORCHESTRA DELUX disc1
DYEAR=2005
DGENRE=Jazz
TTITLE0=IN THE MOOD (イン・ザ・ムード )
TTITLE1=A STRING OF PEARLS (真珠の首飾り)
TTITLE2=LITTLE BROWN JUG (茶色の小瓶)
TTITLE3=TUXEDO JUNCTION (タキシード・ジャンクション)
TTITLE4=CHATTANOOGA CHOO CHOO (チャタヌーガ・チュー・チュー)
TTITLE5=6-5000 PENNSYLVANIA 6-5000 (ペンシルベニア)
TTITLE6=ANVIL CHORUS (アンヴィル・コーラス)
TTITLE7=RHAPSODY IN BLUE (ラプソディー・イン・ブルー)
TTITLE8=SWING LOW SWEET CHARIOT (スウィング・ロウ・スウィート・チャリオット)
TTITLE9=DANNY BOY (ダニー・ボーイ)
TTITLE10=BUGLE CALL RAG (ビューグル・コール・ラグ)
TTITLE11=AT LAST (アット・ラスト)
TTITLE12=I'VE GOT A GAL IN KALAMAZOO (カラマズーの娘)
TTITLE13=DON'T SIT UNDER THE APPLE TREE (リンゴの木陰で)
TTITLE14=MOONLIGHT COCKTAIL (ムーンライト・カクテル)
TTITLE15=LAMPLIGHTERS SERENADE (Webster - Carmichael) (ランプライターズ・セレナーデ)
EXTD=YEAR: 2005
EXTT0=
EXTT1=
EXTT2=
EXTT3=
EXTT4=
EXTT5=
EXTT6=
EXTT7=
EXTT8=
EXTT9=
EXTT10=
EXTT11=
EXTT12=
EXTT13=
EXTT14=
EXTT15=
PLAYORDER=
